<svg xmlns="http://www.w3.org/2000/svg">

  <symbol id="android" viewBox="0 0 24 24" fill="none" stroke="#000" stroke-linecap="round" stroke-linejoin="round">
    <path d="M4 10v6m16-6v6M7 9h10v8a1 1 0 0 1-1 1H8a1 1 0 0 1-1-1za5 5 0 0 1 10 0M8 3l1 2m7-2-1 2M9 18v3m6-3v3"/>
  </symbol>

  <symbol id="apple" viewBox="0 0 24 24" fill="none" stroke="#000" stroke-linecap="round" stroke-linejoin="round">
    <path d="M8.286 7.008C5.07 7.008 4 10.238 4 12.928 4 16.157 6.143 21 8.286 21c1.165-.05 1.799-.538 3.214-.538 1.406 0 1.607.538 3.214.538S19 17.771 19 15.619c-.03-.011-2.649-.434-2.679-3.23-.02-2.335 2.589-3.179 2.679-3.228-1.096-1.606-3.162-2.113-3.75-2.153-1.535-.12-3.032 1.077-3.75 1.077-.729 0-2.036-1.077-3.214-1.077M12 4a2 2 0 0 0 2-2 2 2 0 0 0-2 2"/>
  </symbol>

  <symbol id="card" viewBox="0 0 24 24" fill="none" stroke="#000" stroke-linecap="round" stroke-linejoin="round">
    <path d="M3 8a3 3 0 0 1 3-3h12a3 3 0 0 1 3 3v8a3 3 0 0 1-3 3H6a3 3 0 0 1-3-3zm0 2h18M7 15h.01M11 15h2"/>
  </symbol>

  <symbol id="map-pin" viewBox="0 0 24 24" fill="none" stroke="#ff9500" stroke-linecap="round" stroke-linejoin="round">
    <path d="M9 11a3 3 0 1 0 6 0 3 3 0 0 0-6 0"/><path d="M17.657 16.657 13.414 20.9a2 2 0 0 1-2.827 0l-4.244-4.243a8 8 0 1 1 11.314 0"/>
  </symbol>

  <symbol id="palette" viewBox="0 0 24 24" fill="none" stroke="#000" stroke-linecap="round" stroke-linejoin="round">
    <path d="M12 21a9 9 0 0 1 0-18c4.97 0 9 3.582 9 8 0 1.06-.474 2.078-1.318 2.828S17.693 15 16.5 15H14a2 2 0 0 0-1 3.75A1.3 1.3 0 0 1 12 21"/><path d="M7.5 10.5a1 1 0 1 0 2 0 1 1 0 1 0-2 0m4-3a1 1 0 1 0 2 0 1 1 0 1 0-2 0m4 3a1 1 0 1 0 2 0 1 1 0 1 0-2 0"/>
  </symbol>
</svg>
